<svg xmlns="http://www.w3.org/2000/svg" xmlns:xlink="http://www.w3.org/1999/xlink" viewBox="0 0 64 64">
  <defs>
    <symbol id="button" data-name="button" viewBox="0 0 60 60">
      <circle cx="30" cy="30" r="30" fill="#a9a9dc"/>
    </symbol>
  </defs>
  <title>lower-u-uml</title>
  <g id="Layer_10" data-name="Layer 10">
    <use width="60" height="60" transform="translate(2 2)" xlink:href="#button"/>
    <path d="M37,45.36l-.72-2.51H36A5.66,5.66,0,0,1,33.51,45a8.34,8.34,0,0,1-3.6.75,6.86,6.86,0,0,1-5.22-1.85,7.46,7.46,0,0,1-1.76-5.33V25.71h5.36V37.19A5.51,5.51,0,0,0,29,40.38a2.75,2.75,0,0,0,2.41,1.06,3.62,3.62,0,0,0,3.25-1.5,9.32,9.32,0,0,0,1-5V25.71h5.36V45.36ZM26,20.66a2.29,2.29,0,0,1,.66-1.76,2.51,2.51,0,0,1,1.78-.62,2.48,2.48,0,0,1,1.82.65,2.31,2.31,0,0,1,.66,1.72,2.24,2.24,0,0,1-.67,1.7,2.88,2.88,0,0,1-3.59,0A2.24,2.24,0,0,1,26,20.66Zm7.08,0a2.17,2.17,0,0,1,.71-1.8,2.73,2.73,0,0,1,1.77-.57,2.56,2.56,0,0,1,1.82.63A2.27,2.27,0,0,1,38,20.66a2.21,2.21,0,0,1-.69,1.71,2.56,2.56,0,0,1-1.81.63,2.73,2.73,0,0,1-1.77-.57A2.13,2.13,0,0,1,33,20.66Z"/>
  </g>
</svg>
