<svg xmlns="http://www.w3.org/2000/svg" xmlns:xlink="http://www.w3.org/1999/xlink" viewBox="0 0 64 64">
  <defs>
    <symbol id="button" data-name="button" viewBox="0 0 60 60">
      <circle cx="30" cy="30" r="30" fill="#a9a9dc"/>
    </symbol>
  </defs>
  <title>lower-a-uml</title>
  <g id="Layer_12" data-name="Layer 12">
    <use width="60" height="60" transform="translate(2 2)" xlink:href="#button"/>
    <path d="M37,45.36l-1-2.67h-.14a7.92,7.92,0,0,1-2.79,2.36,9,9,0,0,1-3.74.66,6,6,0,0,1-4.46-1.62,6.21,6.21,0,0,1-1.63-4.61,5.19,5.19,0,0,1,2.19-4.61q2.19-1.49,6.6-1.64l3.41-.11v-.86q0-3-3.06-3a13.94,13.94,0,0,0-5.54,1.42l-1.78-3.62a16,16,0,0,1,7.52-1.78A9.37,9.37,0,0,1,38.65,27a6.37,6.37,0,0,1,2.11,5.24v13.1ZM26.74,20.66a2.29,2.29,0,0,1,.66-1.76,2.51,2.51,0,0,1,1.78-.62,2.48,2.48,0,0,1,1.82.65,2.31,2.31,0,0,1,.66,1.72,2.24,2.24,0,0,1-.67,1.7,2.88,2.88,0,0,1-3.59,0A2.24,2.24,0,0,1,26.74,20.66Zm8.7,15.59-2.07.07a6.64,6.64,0,0,0-3.48.84,2.65,2.65,0,0,0-1.14,2.36q0,2.27,2.6,2.27a4.12,4.12,0,0,0,3-1.07,3.77,3.77,0,0,0,1.12-2.85ZM33.82,20.66a2.17,2.17,0,0,1,.71-1.8,2.73,2.73,0,0,1,1.77-.57,2.56,2.56,0,0,1,1.82.63,2.27,2.27,0,0,1,.68,1.74,2.21,2.21,0,0,1-.69,1.71A2.56,2.56,0,0,1,36.3,23a2.73,2.73,0,0,1-1.77-.57A2.13,2.13,0,0,1,33.82,20.66Z"/>
  </g>
</svg>
