<svg xmlns="http://www.w3.org/2000/svg" xmlns:xlink="http://www.w3.org/1999/xlink" viewBox="0 0 64 64">
  <defs>
    <symbol id="button" data-name="button" viewBox="0 0 60 60">
      <circle cx="30" cy="30" r="30" fill="#a9a9dc"/>
    </symbol>
  </defs>
  <title>upper-u-uml</title>
  <g id="Layer_13" data-name="Layer 13">
    <use width="60" height="60" transform="translate(2 2)" xlink:href="#button"/>
    <path d="M42.55,22.63V39.26a9.59,9.59,0,0,1-1.27,5,8.29,8.29,0,0,1-3.68,3.29,13.17,13.17,0,0,1-5.7,1.14q-5,0-7.7-2.54a9,9,0,0,1-2.74-7V22.63h5.43V38.36a6.59,6.59,0,0,0,1.2,4.36,5,5,0,0,0,4,1.39,4.86,4.86,0,0,0,3.88-1.4,6.62,6.62,0,0,0,1.2-4.39V22.63ZM26,17.69a2.29,2.29,0,0,1,.66-1.76,2.51,2.51,0,0,1,1.78-.62,2.48,2.48,0,0,1,1.82.65,2.31,2.31,0,0,1,.66,1.72,2.24,2.24,0,0,1-.67,1.7,2.88,2.88,0,0,1-3.59,0A2.24,2.24,0,0,1,26,17.69Zm7.08,0a2.17,2.17,0,0,1,.71-1.8,2.73,2.73,0,0,1,1.77-.57,2.56,2.56,0,0,1,1.82.63,2.27,2.27,0,0,1,.68,1.74,2.21,2.21,0,0,1-.69,1.71,2.56,2.56,0,0,1-1.81.63,2.73,2.73,0,0,1-1.77-.57A2.13,2.13,0,0,1,33.09,17.69Z"/>
  </g>
</svg>
