<svg xmlns="http://www.w3.org/2000/svg" xmlns:xlink="http://www.w3.org/1999/xlink" viewBox="0 0 64 64">
  <defs>
    <symbol id="button" data-name="button" viewBox="0 0 60 60">
      <circle cx="30" cy="30" r="30" fill="#a9a9dc"/>
    </symbol>
  </defs>
  <title>upper-o-uml</title>
  <g id="Layer_14" data-name="Layer 14">
    <use width="60" height="60" transform="translate(2 2)" xlink:href="#button"/>
    <path d="M44.23,35.45q0,6.38-3.16,9.81T32,48.68q-5.91,0-9.07-3.43t-3.16-9.84q0-6.42,3.17-9.8T32,22.23q5.92,0,9.06,3.41T44.23,35.45Zm-18.76,0q0,4.31,1.63,6.49A5.72,5.72,0,0,0,32,44.11q6.52,0,6.52-8.67T32,26.76A5.76,5.76,0,0,0,27.13,29Q25.48,31.14,25.48,35.45ZM26,17.69a2.29,2.29,0,0,1,.66-1.76,2.51,2.51,0,0,1,1.78-.62,2.48,2.48,0,0,1,1.82.65,2.31,2.31,0,0,1,.66,1.72,2.24,2.24,0,0,1-.67,1.7,2.88,2.88,0,0,1-3.59,0A2.24,2.24,0,0,1,26,17.69Zm7.08,0a2.17,2.17,0,0,1,.71-1.8,2.73,2.73,0,0,1,1.77-.57,2.56,2.56,0,0,1,1.82.63,2.27,2.27,0,0,1,.68,1.74,2.21,2.21,0,0,1-.69,1.71,2.56,2.56,0,0,1-1.81.63,2.73,2.73,0,0,1-1.77-.57A2.13,2.13,0,0,1,33.09,17.69Z"/>
  </g>
</svg>
