<svg id="Layer_1" data-name="Layer 1" xmlns="http://www.w3.org/2000/svg" xmlns:xlink="http://www.w3.org/1999/xlink" viewBox="0 0 300 300">
  <defs>
    <clipPath id="clip-path">
      <rect x="10" y="9.65" width="280" height="280.7" fill="none"/>
    </clipPath>
  </defs>
  <title>gear</title>
  <g>
    <g clip-path="url(#clip-path)">
      <path d="M275.78,120.19l-19.66-3.34a111.14,111.14,0,0,0-7.9-19.07l11.59-16.21a17.26,17.26,0,0,0-1.87-22.29L240.5,41.83a17.18,17.18,0,0,0-12.23-5.09,17,17,0,0,0-10,3.22L202,51.55a109.81,109.81,0,0,0-19.78-8.13L178.94,24A17.29,17.29,0,0,0,161.85,9.53H137.22A17.29,17.29,0,0,0,120.13,24l-3.39,19.89a108.17,108.17,0,0,0-19,8L81.63,40.31a17.29,17.29,0,0,0-22.3,1.87L41.83,59.62A17.32,17.32,0,0,0,40,81.92l11.7,16.44a108.19,108.19,0,0,0-7.78,19.14l-19.43,3.27A17.29,17.29,0,0,0,10,137.86v24.64a17.29,17.29,0,0,0,14.45,17.09L44.35,183a108.36,108.36,0,0,0,8,19L40.84,218a17.25,17.25,0,0,0,1.87,22.3l17.44,17.44a17.21,17.21,0,0,0,22.24,1.87l16.44-11.7a110.68,110.68,0,0,0,18.49,7.61l3.28,19.66a17.29,17.29,0,0,0,17.09,14.45h24.69a17.28,17.28,0,0,0,17.09-14.45l3.33-19.66a110.85,110.85,0,0,0,19.08-7.9l16.21,11.59a17.28,17.28,0,0,0,22.3-1.87l17.44-17.44a17.32,17.32,0,0,0,1.87-22.3L248.1,201.35a109.91,109.91,0,0,0,7.9-19.07L275.66,179a17.28,17.28,0,0,0,14.45-17.09V137.27a17.08,17.08,0,0,0-14.34-17.09Zm-1.35,41.72a1.51,1.51,0,0,1-1.29,1.52l-24.58,4.1a7.86,7.86,0,0,0-6.32,5.79,93.74,93.74,0,0,1-10.18,24.52,7.91,7.91,0,0,0,.35,8.6l14.45,20.36a1.6,1.6,0,0,1-.17,2l-17.44,17.44a1.49,1.49,0,0,1-1.11.47,1.45,1.45,0,0,1-.88-.29L207,232a7.91,7.91,0,0,0-8.6-.35,93.71,93.71,0,0,1-24.52,10.18,7.77,7.77,0,0,0-5.79,6.32l-4.15,24.58a1.51,1.51,0,0,1-1.52,1.29H137.74a1.52,1.52,0,0,1-1.52-1.29l-4.09-24.58a7.86,7.86,0,0,0-5.79-6.32,97.3,97.3,0,0,1-24-9.83,8.11,8.11,0,0,0-4-1.05,7.71,7.71,0,0,0-4.57,1.46L73.31,246.93a1.72,1.72,0,0,1-.88.29,1.57,1.57,0,0,1-1.11-.47L53.89,229.32a1.58,1.58,0,0,1-.17-2l14.39-20.19a8,8,0,0,0,.35-8.66A92.69,92.69,0,0,1,58.16,174a8,8,0,0,0-6.32-5.79L27.09,164a1.51,1.51,0,0,1-1.29-1.52V137.86a1.51,1.51,0,0,1,1.29-1.52l24.4-4.09a7.92,7.92,0,0,0,6.38-5.85,93.5,93.5,0,0,1,10-24.58,7.81,7.81,0,0,0-.41-8.54L52.89,72.79a1.59,1.59,0,0,1,.17-2L70.51,53.36a1.48,1.48,0,0,1,1.11-.47,1.45,1.45,0,0,1,.88.29L92.68,67.58a8,8,0,0,0,8.66.35,92.83,92.83,0,0,1,24.46-10.3,8,8,0,0,0,5.79-6.32l4.21-24.75a1.51,1.51,0,0,1,1.52-1.29H162a1.51,1.51,0,0,1,1.52,1.29l4.1,24.4a7.91,7.91,0,0,0,5.85,6.38,95,95,0,0,1,25.1,10.3,7.91,7.91,0,0,0,8.6-.35l20.19-14.51a1.73,1.73,0,0,1,.88-.29,1.57,1.57,0,0,1,1.11.47l17.44,17.44a1.59,1.59,0,0,1,.18,2l-14.45,20.3a7.91,7.91,0,0,0-.35,8.6,93.69,93.69,0,0,1,10.18,24.52,7.76,7.76,0,0,0,6.32,5.79l24.58,4.15a1.52,1.52,0,0,1,1.29,1.52v24.63Zm0,0" fill="#ffc61b"/>
    </g>
    <path d="M150.09,89.11a60.45,60.45,0,1,0,60.45,60.45,60.49,60.49,0,0,0-60.45-60.45Zm0,105.09a44.65,44.65,0,1,1,44.65-44.65,44.68,44.68,0,0,1-44.65,44.65Zm0,0" fill="#ffc61b"/>
  </g>
</svg>
