<svg xmlns="http://www.w3.org/2000/svg" viewBox="0 0 64 64">
  <title>happy-boy</title>
  <g id="happy-boy">
    <path d="M32,2C55,2,60,17.3,60,26c0,7.7-1,11-1,11H5S4,33.7,4,26C4,17.3,9,2,32,2Z" fill="#231f20"/>
    <path d="M57.2,33A64.28,64.28,0,0,1,56,22.8c-.5-7.5-10.9-1.5-24-1.5s-23.5-6-24,1.5A64.28,64.28,0,0,1,6.8,33C.3,33,.3,43.6,7.2,43.6,7.2,55,21.5,62,32,62s24.8-7,24.8-18.4c6.9,0,6.9-10.6.4-10.6" fill="#8a6859"/>
    <circle cx="44.5" cy="35.5" r="6.5" fill="#fff"/>
    <circle cx="44.5" cy="35.5" r="4.5" fill="#9c0cfa"/>
    <circle cx="44.5" cy="35.5" r="1.5" fill="#231f20"/>
    <circle cx="19.5" cy="35.5" r="6.5" fill="#fff"/>
    <circle cx="19.5" cy="35.5" r="4.5" fill="#9c0cfa"/>
    <circle cx="19.5" cy="35.5" r="1.5" fill="#231f20"/>
    <path d="M40.1,48.1a13.5,13.5,0,0,1-16.2,0c-.6-.4-1.2.3-.8,1a10.53,10.53,0,0,0,17.8,0c.4-.7-.2-1.4-.8-1" fill="#574137"/>
  </g>
</svg>
