<svg xmlns="http://www.w3.org/2000/svg" xmlns:xlink="http://www.w3.org/1999/xlink" viewBox="0 0 300 300">
  <defs>
    <symbol id="border" data-name="border" viewBox="0 0 290 290">
      <rect id="outer_border" data-name="outer border" width="290" height="290" rx="10" ry="10" fill="#ffc51b"/>
      <rect id="inner_border" data-name="inner border" x="10" y="10" width="270" height="270" rx="10" ry="10" fill="#ffedb9"/>
    </symbol>
  </defs>
  <title>flashcard-netherland</title>
  <g id="netherland">
    <use width="290" height="290" transform="translate(5 5)" xlink:href="#border"/>
    <g>
      <g>
        <path d="M87.81,179.48c-.16-.39,0-1.72-1.13-.86l-1.14.86C86.71,179.87,88,179.87,87.81,179.48ZM235.17,138.9c1.15-2.92,3.55-5,2.4-7.72s-2.09-1.77-3.55-4.17-1.25.21-4.28,0-6.36.52-8.55-2.71-2.5.42-2.19-3.23,4.49-1.15,3.86-4.28-5.21-3.43-2-5.3H187.2c1.31,1.72,1.55,3.61-1.48,3.52-3.55-.1-3.13-.1-5.22.83s-2.82,1.36-2.82,1.36,5.42,6.68-2.09,12.73-7.51,2.82-9.18,6.47-.63,8-7.3,7-3.86-1.36-7-3.65-1.36-1.36-5-1.36-3.44-1.15-5.95-2.09-4.69-.42-3.34-2.5,3-2,4.17-4.69-3-1.46-1.15-4.59,2.61-.42,1.36-3.23-4.49-4.49-3.76-7.09,1-2.61,2.5-2.09-1,4,3.44,1.88c3.19-1.48,4.27-1.6,5.3-2.48H121.28c-.15.43-.33.91-.53,1.44-3.23,8.24.73,13.77-6,21.7s-6.23,10.37-12.52,19.51c-1.15,1.67-4,5.63-5.42,6.47s-.63,4.38-.63,4.38a18.14,18.14,0,0,0,4.59,4.28c2.71,1.67-4.38-.63-5.11-1.25s-.63-5.22-3.76-4.49S89,168.32,90.5,170s-1.77,2.5,1.88,4.17,5.53,4.07,11.16,5.63,4.28,4.69,7.3,4.28,5.42,2.29,7.82.42.63-4,5.63-3.76,3.55.42,5.42,1.77,5.32,1.36,2.19,2.4-7.32-.55-9,.36h64.3a8.87,8.87,0,0,1,.58-.78c1.77-2.19-2.82-.94-3-2.4s2.5-1.77,1-4.59-4-2.4.63-3.34,4,.31,6.26-.52-.73-2.09-.73-3.55.52-1.56,3.23,0,3.65,2.19,4.69,1.67.73,1,2.71,1.77,5.22,5.42,4.28,1.67-2.27-4.49.17-3.86,3.27,1.56,7.86-1.15,4.59-2.4,6.15-2,1.56,2.5,3-1.56,2.19-1.36,2.5-2.4-1.46-5.84-6.88-6,2.29-1.56,2.61-2.92-1.88-2.61,1.56-3.55,3.34,1.15,4.38-.52,3-5.11,4.59-6.68,4.07,2.09,4.07-.83S234,141.82,235.17,138.9ZM80.85,181.17c1.41.26,2.22.91,2.68,0s-1.89-1-1.89-1S79.44,180.91,80.85,181.17Zm18-1.61c-.86-.7-2.16.31-3.93-1.72s-4-1.88-4.83-3-3-.36-4.3,0c-2.24.64-4.07,1.41-3,2.89s.7,2.19,2.27,1.25,1-2,2.5-1.86,3.21.6,3,2.29-.63.39.31,2.45.7,3,2.43,3.07c1.49.07,2.27-.1,3.11.31h11.5c-3-.39-4.76-1.56-5.31-2.19S99.7,180.26,98.84,179.56ZM87,182.45c-.7.16-1.56.93-2.3,0s-1.29.7-4.11,0-5.18-.81-5.79,0a13.06,13.06,0,0,0-1.52,2.81H90C88.71,184,87.51,182.34,87,182.45Zm148.14-71h-3.72C233.9,112.43,234.32,115.63,235.17,111.49Zm-59.77,3.42a13.2,13.2,0,0,0,8.16-3.42H167.43C168.44,113.58,169.92,115.22,175.4,114.91Z" fill="#fff"/>
        <path d="M74.82,187.54c2.42-.68,2.61-1.75,3.24-1.93H73.19C72.76,187,72.9,188.08,74.82,187.54Zm15,6.16c-.94.86,2,1.25,2.82,3.21s-.15,1.77,2.5,2.35c1,.22,3.91.55,4.77,0s-1.56-3.29-3.29-4.62a7.51,7.51,0,0,0-4-1.8A4.94,4.94,0,0,0,89.86,193.69Zm16.49-6.31c1.21-.92,3.14-1.42,2.85-1.77H97a8.82,8.82,0,0,0,3.69,1.77C102.67,187.85,104.71,188.63,106.35,187.38Zm-23.55-.23c.63.55,1.26,2.35,1.92,3s.74-.39,1.83.63a4.48,4.48,0,0,0,4.69.78A6.11,6.11,0,0,0,94,189.1c.31-.78-.47-1.49-2.27-2.43a6.44,6.44,0,0,1-1.38-1.07H78.46a4.08,4.08,0,0,1,1.14.52C82.1,187.61,82.18,186.6,82.8,187.14ZM197.51,211.5c.1-3.34.73-.31,0-3.86s1.15-3.86-.83-8.14-3.44-2.71-4.38-6.26,2.5-3.55-1.56-4.9c-3.24-1.08-4.29-1.5-3.69-2.74h-65c-2.52.64-9.17.28-11.18,0h-.83c-.85.34.13,2.19-3.42,3.34-4.17,1.36-4.89,2.77-8.44,1.31s-5.47,2.71-1.73,1.82c4.62-1.1,3.78,3.62,4.3,4.15s.76.57-.18,3,4.9,7.93-3,5.84-3.86,2.19-7.09-2.5c-2.86-4.15-5.55-5-6.57-4.94.63-.15,1.44-.41-2.5.25-5.63.94-5.63-.21-6.78,1.46s-3.76-2.61-3.76-4.07-.1-2-2.82-1.15-5,3.86-6.36,3.86-1.67,1.77,1.15,3.86,3.76,5.74,6.36,4.28,1.67-4.38,4-2,1.67,2.92,3,3.65,1.46,1.46,3.76,1.88,3.13,1.15,3.76.52.1-2.5,2.61-4.49,3.44-1,4.8.1,1,1.56,3.44,2.29,3.34.94,4.69.52,2.09,3.13-1.36,3.34-2.29,2-4.38.63.1-3.76-4-3.23-1.56,3.23-4.8,2.92-5.74,1.36-7.09,1.36-2.71-.83-4.38-1.46a19.17,19.17,0,0,1-4-1.88c-2.92-1.56-3.76-3.76-5.42-3.23s-7.68.93-5.93,3.34l.61.1a3.35,3.35,0,0,1,0,5s-2,3,1.16,4.28,6.35.1,6.14-1.88c0,0,3.44-.94,3.65-2a10,10,0,0,0,8.24,3c1.15-.1.1,3.55,1.36,4s1.88.21,3.44.73,2.5,1.36,4.49,0,1.36-3.44,4.38-3.34,2.5-.41,5.74-2.87,4.38-4.33,3.76-5.79.21-2,2-1.67,2.5,2.09,3.44,2.61,4,.1,3-1.77-1.56-1.25-1.25-2.71a7.71,7.71,0,0,0-.63-3.65s6.15-3.76,8.34-2.09-2.19,5.11,0,4.59a20,20,0,0,1,5.22-.52c1.56,0,3-1.36,3.86-3.13s3.34-1.79,4.17-1.37,2.61,3,1.36,4.5-5.42-.21-3.76,1.15,3.34.83,5.32.73,1.77,1.56,3,.63a9.76,9.76,0,0,0,3-5.11c.31-1.77.73-1.56,2.19-.83s.83,1.36,2.29.94.42,2.4,0,5.53.83,1.23,2.71,3.59-3.34,2.67.83,2.36-.52,5.42,2.71,5a39.32,39.32,0,0,0,6.47-1.36c2.92-.73,3.34,2.71,5.63-.42a5.72,5.72,0,0,0,.92-1.63c.1.3.43.78,1.37,1.32,2.92,1.67.73,4.49,2.09,4.8s2.71-.82,5,1.26,3.44,1.87,5,1.56.21,2.09,2,1.77,3.34-.21,2.61.94-2.61,1.88-1.67,3.65-1-1.56-1.36,1.56-2.4,1.88-2.19,3.55-.73.1-1.56,3.76-.94,1.67,1.88,3-.52,3.23-1.88,3.34.21-.52-1.88,1.25-3.44.73-1.77,3.76,4,4.07,3.44,5.42a1.6,1.6,0,0,0,.32,1.46H176c1.15-2.19,1.41-.83,4-.21s2-.94,5.34-.73c1.65.1,2,.59,2.25.94h1.61c1.73-.9-1.37-1.82-1.67-3.13s-.21-.52.52-1.88-.5-2.92,1.68-3,3-.21,2.49-2-.1-3.55-1.46-4.38-3.34.94-3.55-1.67.63-4.07-2.82-2.92-5.22-2.92-5-4,2.5-.52,2.92-1.36.42,3,1.67,1.46a16.62,16.62,0,0,1,3.13-3.55c1.67-1.36,3.13-1,4.59-3.23s3.65.52,4-1.67,1.15-2,0-3.34-4.38,3.23-5-.31.94-3,1-4.69S197.41,214.84,197.51,211.5ZM72.65,191.21c1.16.39,2.25.39,1.47-.55s-1.47-.55-1.47-.55C71,190.27,71.49,190.82,72.65,191.21Zm5.15,2.11c-2.19.08-4.69-1.56-5.08,0a2.41,2.41,0,0,0,.94,2.5c1.1.86.39,2.5,1.1,2A11.1,11.1,0,0,1,78,196.61c1.33-.31,3.05.94,4.38.39s2.74-.62,2.19-1.37-.16-1.26-1.56-2.8S80,193.25,77.8,193.32Z" fill="blue"/>
        <path d="M148.91,57.57c.83-1.56,0-1.67,1.67-1.88s3.86.21,4.9-1.15.52-1,2.61-1.36,3.34-1.77,4.28-2.19,2.92-1.25,2.61-1.77-3.44,1.46-5.95,2.09-4.59,2.37-6.57,2.38-5.94-.74-4.49.85c0,0-3.55.83-2.71,2S148.07,59.14,148.91,57.57ZM127.16,83.91c-.16-1.1,2.72-2.35,2.72-2.35a30.65,30.65,0,0,0,4.79-7.2c1.41-3.44-.94-3.13-3.13-4.54s-1.1,1.56-3.76,5.63a21.41,21.41,0,0,0-3.13,8.45C125,88.6,127.32,85,127.16,83.91Zm5-16.27s1.25,2.5,3.44,0,1.1-2.19,2.35-3.44,4.38-2,5-3-2.82-1.25-4.07,0-3.13,1.23-4.54,3.35S130.13,67.64,132.17,67.64Zm15.39,35.52c-2.5,1.25-3.44,2.71-3.55-2S142.54,90.85,138.79,90s2.71,2-3.76,1.77-8.87-.83-6.47-3.55-2.19-3.76-3.34.1-2.72,10.25-4.49,17.31c-.86,3.45,2.58,0,.65,5.84h28.69a11.2,11.2,0,0,0,1-1.25c1.88-2.61,3.75-.94,2-4.07S150.05,101.9,147.55,103.15Zm93.67-31.81c1.36-4.69-.1-3.86-.42-8.14s-3.76,1.56-7.72-3.44-3.86-3.23-6.68-6.78-1-6.57-4.8-5.95-2.4,4.07-10.85,3.75-8,2.19-12.31,1.36-7.72-.21-12,.73-14.29,6.78-17.11,7.51-3.34,3.23-7.82,4.8-2.09,4.9-3.86,8-3.55,3.86-2.71,7.61,3.23,4.17,2.19,8.34c-.39,1.55-.26,2-.07,2.17a7.17,7.17,0,0,0-.77.55c-2.5,2,.31,4.38,2.09,4.38s2.09.73,4.69.83,4-2.92,6.88-1a5.42,5.42,0,0,1,1.82,1.69,7.33,7.33,0,0,0-4.32,4.68c-1.77,4.8-2.71,4-1.15,7,.36.7.64,1.41.95,2.08H184c1-.82,1.74-1.25,2.47-.52.17.17.32.34.47.52h34.58c3.27-1.57,3.93.57,5.83-.83s-.18.37,1.93.83h6l0-.21c1-5.63-.21-9.07,1.88-13.66s-1.36-1.77,2.5-6.78,2-2.71,2.61-8.66S239.86,76,241.22,71.34Zm-29-28.58c2.19.1,2.82-.52,2.5-1.36s.63-1-1.88-.42C212.85,41,210,42.66,212.22,42.76ZM167.37,50.9c1.67.52,4,.94,5,0s2-.8,3.55-.87,4.38-1.53,5.63-1.43a4,4,0,0,0,2.5-1s-4,.42-5.11.73-3.55,1.29-5.11,1.22-2.82.7-3.65-.37-2.11-1.51-2.82-.54C166.84,49.33,165.7,50.37,167.37,50.9Zm41.2-7.51c1.36-.94-.31-2.4-1.67-2.4s-2.27.08-1.67.63C206.72,42.95,207.21,44.33,208.57,43.39Zm-17.63,4.8c.21-.21.63-.63,2.29-.63s2.61.43,3.44-.25a16.82,16.82,0,0,1,2.4-1.62c1-.63,2.19-.94,1.88-1.36s-1.4.42-5,1.25-3.63-1-5,.83C190.94,46.41,190.73,48.39,190.94,48.18Zm-2.61,0c.09-.65-2.82,0-1.88.94S188,50.41,188.33,48.2Z" fill="red"/>
      </g>
      <g>
        <path d="M58.58,210.17a3.35,3.35,0,0,1,0,5s-2,3,1.16,4.28,6.35.1,6.14-1.88c0,0,3.44-.94,3.65-2a10,10,0,0,0,8.24,3c1.15-.1.1,3.55,1.36,4s1.88.21,3.44.73,2.5,1.36,4.49,0,1.36-3.44,4.38-3.34,2.5-.41,5.74-2.87,4.38-4.33,3.76-5.79.21-2,2-1.67,2.5,2.09,3.44,2.61,4,.1,3-1.77-1.56-1.25-1.25-2.71a7.71,7.71,0,0,0-.63-3.65s6.15-3.76,8.34-2.09-2.19,5.11,0,4.59a20,20,0,0,1,5.22-.52c1.56,0,3-1.36,3.86-3.13s3.34-1.79,4.17-1.37,2.61,3,1.36,4.5-5.42-.21-3.76,1.15,3.34.83,5.32.73,1.77,1.56,3,.63a9.76,9.76,0,0,0,3-5.11c.31-1.77.73-1.56,2.19-.83s.83,1.36,2.29.94.42,2.4,0,5.53.83,1.23,2.71,3.59-3.34,2.67.83,2.36-.52,5.42,2.71,5a39.32,39.32,0,0,0,6.47-1.36c2.92-.73,3.34,2.71,5.63-.42s-.63-2,2.29-.31.73,4.49,2.09,4.8,2.71-.82,5,1.26,3.44,1.87,5,1.56.21,2.09,2,1.77,3.34-.21,2.61.94-2.61,1.88-1.67,3.65-1-1.56-1.36,1.56-2.4,1.88-2.19,3.55-.73.1-1.56,3.76-.94,1.67,1.88,3-.52,3.23-1.88,3.34.21-.52-1.88,1.25-3.44.73-1.77,3.76,4,4.07,3.44,5.42,2,3.65,3.13,1.46,1.41-.83,4-.21,2-.94,5.34-.73,1.46,2,3.65,1-1.15-1.88-1.46-3.23-.21-.52.52-1.88-.5-2.92,1.68-3,3-.21,2.49-2-.1-3.55-1.46-4.38-3.34.94-3.55-1.67.63-4.07-2.82-2.92-5.22-2.92-5-4,2.5-.52,2.92-1.36.42,3,1.67,1.46a16.62,16.62,0,0,1,3.13-3.55c1.67-1.36,3.13-1,4.59-3.23s3.65.52,4-1.67,1.15-2,0-3.34-4.38,3.23-5-.31.94-3,1-4.69,5.63-4.9,5.74-8.24.73-.31,0-3.86,1.15-3.86-.83-8.14-3.44-2.71-4.38-6.26,2.5-3.55-1.56-4.9-4.69-1.67-2.92-3.86-2.82-.94-3-2.4,2.5-1.77,1-4.59-4-2.4.63-3.34,4,.31,6.26-.52-.73-2.09-.73-3.55.52-1.56,3.23,0,3.65,2.19,4.69,1.67.73,1,2.71,1.77,5.22,5.42,4.28,1.67-2.27-4.49.17-3.86,3.27,1.56,7.86-1.15,4.59-2.4,6.15-2,1.56,2.5,3-1.56,2.19-1.36,2.5-2.4-1.46-5.84-6.88-6,2.29-1.56,2.61-2.92-1.88-2.61,1.56-3.55,3.34,1.15,4.38-.52,3-5.11,4.59-6.68,4.07,2.09,4.07-.83-2.92-1.88-1.77-4.8,3.55-5,2.4-7.72-2.09-1.77-3.55-4.17-1.25.21-4.28,0-6.36.52-8.55-2.71-2.5.42-2.19-3.23,4.49-1.15,3.86-4.28-5.42-3.44-1.77-5.42,4.28.42,6.26-1-.73.83,2.92.94,4,5.32,5-.31-.21-9.07,1.88-13.66-1.36-1.77,2.5-6.78,2-2.71,2.61-8.66-2.4-6.15-1-10.85-.1-3.86-.42-8.14-3.76,1.56-7.72-3.44-3.86-3.23-6.68-6.78-1-6.57-4.8-5.95-2.4,4.07-10.85,3.76-8,2.19-12.31,1.36-7.72-.21-12,.73S172.17,59,169.35,59.76,166,63,161.53,64.56s-2.09,4.9-3.86,8-3.55,3.86-2.71,7.61,3.23,4.17,2.19,8.34,1.67.73-.83,2.71.31,4.38,2.09,4.38,2.09.73,4.69.83,4-2.92,6.88-1,1.56,2.92,2.5,2-3.23-.42-5,4.38-2.71,4-1.15,7,1.56,6.26,9.07,5.84,9.18-6.15,11.06-4.28,2.82,4.49-.73,4.38-3.13-.1-5.22.83-2.82,1.36-2.82,1.36,5.42,6.68-2.09,12.73-7.51,2.82-9.18,6.47-.63,8-7.3,7-3.86-1.36-7-3.65-1.36-1.36-5-1.36-3.44-1.15-5.95-2.09-4.69-.42-3.34-2.5,3-2,4.17-4.69-3-1.46-1.15-4.59,2.61-.42,1.36-3.23-4.49-4.49-3.76-7.09,1-2.61,2.5-2.09-1,4,3.44,1.88,4.8-1.46,6.68-4.07,3.76-.94,2-4.07-3-4.28-5.53-3-3.44,2.71-3.55-2-1.46-10.33-5.22-11.16,2.71,2-3.76,1.77-8.87-.83-6.47-3.55-2.19-3.76-3.34.1S122.51,98,120.74,105c-.94,3.76,3.23-.63,0,7.61s.73,13.77-6,21.7-6.23,10.37-12.52,19.51c-1.15,1.67-4,5.63-5.42,6.47s-.63,4.38-.63,4.38a18.14,18.14,0,0,0,4.59,4.28c2.71,1.67-4.38-.63-5.11-1.25s-.63-5.22-3.76-4.49S89,168,90.5,169.7s-1.77,2.5,1.88,4.17,5.53,4.07,11.16,5.63,4.28,4.69,7.3,4.28,5.42,2.29,7.82.42.63-4,5.63-3.76,3.55.42,5.42,1.77,5.32,1.36,2.19,2.4-7.51-.63-9.07.42-10.12.57-12.1.26.1,2-4.07,3.36-4.89,2.77-8.44,1.31-5.47,2.71-1.73,1.82c4.62-1.1,3.78,3.62,4.3,4.15s.76.57-.18,3,4.9,7.93-3,5.84-3.86,2.19-7.09-2.5-6.26-5.11-6.88-4.9,3.44-.73-2.19.21-5.63-.21-6.78,1.46-3.76-2.61-3.76-4.07-.1-2-2.82-1.15-5,3.86-6.36,3.86-1.67,1.77,1.15,3.86,3.76,5.74,6.36,4.28,1.67-4.38,4-2,1.67,2.92,3,3.65,1.46,1.46,3.76,1.88,3.13,1.15,3.76.52.1-2.5,2.61-4.49,3.44-1,4.8.1,1,1.56,3.44,2.29,3.34.94,4.69.52,2.09,3.13-1.36,3.34-2.29,2-4.38.63.1-3.76-4-3.23-1.56,3.23-4.8,2.92S79,213.3,77.67,213.3s-2.71-.83-4.38-1.46a19.17,19.17,0,0,1-4-1.88c-2.92-1.56-3.76-3.76-5.42-3.23s-7.68.93-5.93,3.34" fill="none" stroke="#000" stroke-miterlimit="10" stroke-width="0.75"/>
        <path d="M95.18,199c-2.65-.58-1.64-.39-2.5-2.35s-3.76-2.35-2.82-3.21a4.94,4.94,0,0,1,2.82-.86,7.51,7.51,0,0,1,4,1.8c1.72,1.33,4.15,4.07,3.29,4.62S96.2,199.19,95.18,199Z" fill="none" stroke="#000" stroke-miterlimit="10" stroke-width="0.75"/>
        <path d="M72.71,193a2.41,2.41,0,0,0,.94,2.5c1.1.86.39,2.5,1.1,2A11.1,11.1,0,0,1,78,196.33c1.33-.31,3.05.94,4.38.39s2.74-.62,2.19-1.37-.16-1.26-1.56-2.8S80,193,77.8,193,73.1,191.48,72.71,193Z" fill="none" stroke="#000" stroke-miterlimit="10" stroke-width="0.75"/>
        <path d="M74.82,182.17c-1,1.29-3.6,6.1,0,5.08s2.27-2.89,4.77-1.41,2.58.47,3.21,1,1.26,2.35,1.92,3,.74-.39,1.83.63a4.48,4.48,0,0,0,4.69.78A6.11,6.11,0,0,0,94,188.82c.31-.78-.47-1.49-2.27-2.43s-4-4.38-4.69-4.22-1.56.93-2.3,0-1.29.7-4.11,0S75.43,181.35,74.82,182.17Z" fill="none" stroke="#000" stroke-miterlimit="10" stroke-width="0.75"/>
        <path d="M72.65,189.83c-1.66.16-1.16.7,0,1.1s2.25.39,1.47-.55S72.65,189.83,72.65,189.83Z" fill="none" stroke="#000" stroke-miterlimit="10" stroke-width="0.75"/>
        <path d="M85.78,174.58c-2.24.64-4.07,1.41-3,2.89s.7,2.19,2.27,1.25,1-2,2.5-1.86,3.21.6,3,2.29-.63.39.31,2.45.7,3,2.43,3.07,2.5-.16,3.52.55a9.17,9.17,0,0,0,3.83,1.88c2,.47,4.07,1.25,5.71,0s4.62-1.72,1.56-2.11-4.77-1.56-5.32-2.19-2.89-2.82-3.76-3.52-2.16.31-3.93-1.72-4-1.88-4.83-3S87,174.22,85.78,174.58Z" fill="none" stroke="#000" stroke-miterlimit="10" stroke-width="0.75"/>
        <path d="M124.66,83.29a21.41,21.41,0,0,1,3.13-8.45c2.66-4.07,1.56-7,3.76-5.63s4.54,1.1,3.13,4.54a30.65,30.65,0,0,1-4.79,7.2s-2.87,1.25-2.72,2.35S125,88,124.66,83.29Z" fill="none" stroke="#000" stroke-miterlimit="10" stroke-width="0.75"/>
        <path d="M132.17,67s1.25,2.5,3.44,0,1.1-2.19,2.35-3.44,4.38-2,5-3-2.82-1.25-4.07,0-3.13,1.23-4.54,3.35S130.13,67,132.17,67Z" fill="none" stroke="#000" stroke-miterlimit="10" stroke-width="0.75"/>
        <path d="M148,53.92s-3.55.83-2.71,2,2.82,2.61,3.65,1,0-1.67,1.67-1.88,3.86.21,4.9-1.15.52-1,2.61-1.36,3.34-1.77,4.28-2.19,2.92-1.25,2.61-1.77-3.44,1.46-5.95,2.09-4.59,2.37-6.57,2.38S146.51,52.34,148,53.92Z" fill="none" stroke="#000" stroke-miterlimit="10" stroke-width="0.75"/>
        <path d="M167.37,48c-.53.73-1.67,1.77,0,2.29s4,.94,5,0,2-.8,3.55-.87,4.38-1.53,5.63-1.43a4,4,0,0,0,2.5-1s-4,.42-5.11.73-3.55,1.29-5.11,1.22-2.82.7-3.65-.37S168.07,47,167.37,48Z" fill="none" stroke="#000" stroke-miterlimit="10" stroke-width="0.75"/>
        <path d="M190.94,45.79s-.21,2,0,1.77.63-.63,2.29-.63,2.61.43,3.44-.25a16.81,16.81,0,0,1,2.4-1.62c1-.63,2.19-.94,1.88-1.36s-1.4.42-5,1.25S192.3,43.91,190.94,45.79Z" fill="none" stroke="#000" stroke-miterlimit="10" stroke-width="0.75"/>
        <path d="M205.23,41c1.49,1.34,2,2.71,3.34,1.77s-.31-2.4-1.67-2.4S204.63,40.45,205.23,41Z" fill="none" stroke="#000" stroke-miterlimit="10" stroke-width="0.75"/>
        <path d="M212.85,40.36S210,42,212.22,42.14s2.82-.52,2.5-1.36S215.35,39.74,212.85,40.36Z" fill="none" stroke="#000" stroke-miterlimit="10" stroke-width="0.75"/>
        <path d="M188.33,47.58c.09-.65-2.82,0-1.88.94S188,49.78,188.33,47.58Z" fill="none" stroke="#000" stroke-miterlimit="10" stroke-width="0.75"/>
        <path d="M81.63,179.9s-2.19.72-.78,1,2.22.91,2.68,0S81.63,179.9,81.63,179.9Z" fill="none" stroke="#000" stroke-miterlimit="10" stroke-width="0.75"/>
        <path d="M85.54,179.19c1.17.39,2.43.39,2.27,0s0-1.72-1.13-.86Z" fill="none" stroke="#000" stroke-miterlimit="10" stroke-width="0.75"/>
      </g>
    </g>
  </g>
</svg>
