<svg xmlns="http://www.w3.org/2000/svg" xmlns:xlink="http://www.w3.org/1999/xlink" viewBox="0 0 64 64">
  <defs>
    <symbol id="button" data-name="button" viewBox="0 0 60 60">
      <circle cx="30" cy="30" r="30" fill="#a9a9dc"/>
    </symbol>
  </defs>
  <title>lower-o-uml</title>
  <g id="Layer_11" data-name="Layer 11">
    <use width="60" height="60" transform="translate(2 2)" xlink:href="#button"/>
    <path d="M41.53,35.5A10.56,10.56,0,0,1,39,43a9.18,9.18,0,0,1-7,2.71,9.86,9.86,0,0,1-5-1.24,8.25,8.25,0,0,1-3.32-3.56,12,12,0,0,1-1.16-5.41q0-4.82,2.51-7.49a9.23,9.23,0,0,1,7.07-2.67,9.92,9.92,0,0,1,5,1.23,8.21,8.21,0,0,1,3.32,3.53A11.85,11.85,0,0,1,41.53,35.5ZM26,20.66a2.29,2.29,0,0,1,.66-1.76,2.51,2.51,0,0,1,1.78-.62,2.48,2.48,0,0,1,1.82.65,2.31,2.31,0,0,1,.66,1.72,2.24,2.24,0,0,1-.67,1.7,2.88,2.88,0,0,1-3.59,0A2.24,2.24,0,0,1,26,20.66Zm2,14.84a8.25,8.25,0,0,0,1,4.41A3.43,3.43,0,0,0,32,41.4a3.37,3.37,0,0,0,3.08-1.49A8.37,8.37,0,0,0,36,35.5a8.12,8.12,0,0,0-.95-4.38A3.43,3.43,0,0,0,32,29.66a3.42,3.42,0,0,0-3.09,1.45A8.11,8.11,0,0,0,27.94,35.5Zm5.12-14.84a2.17,2.17,0,0,1,.71-1.8,2.73,2.73,0,0,1,1.77-.57,2.56,2.56,0,0,1,1.82.63A2.27,2.27,0,0,1,38,20.66a2.21,2.21,0,0,1-.69,1.71,2.56,2.56,0,0,1-1.81.63,2.73,2.73,0,0,1-1.77-.57A2.13,2.13,0,0,1,33.05,20.66Z"/>
  </g>
</svg>
