<svg xmlns="http://www.w3.org/2000/svg" xmlns:xlink="http://www.w3.org/1999/xlink" viewBox="0 0 64 64">
  <defs>
    <symbol id="button" data-name="button" viewBox="0 0 60 60">
      <circle cx="30" cy="30" r="30" fill="#a9a9dc"/>
    </symbol>
  </defs>
  <title>sset</title>
  <g id="Layer_9" data-name="Layer 9">
    <use width="60" height="60" transform="translate(2 2)" xlink:href="#button"/>
    <path d="M40.38,23.78a4.94,4.94,0,0,1-.37,2,6.12,6.12,0,0,1-.93,1.52,8.2,8.2,0,0,1-1.21,1.18l-1.21.93a8.75,8.75,0,0,0-.93.79,1.08,1.08,0,0,0-.37.76,1.32,1.32,0,0,0,.47.93A9.55,9.55,0,0,0,37.45,33a25.41,25.41,0,0,1,3.49,2.46,5.58,5.58,0,0,1,1.37,1.93,6.29,6.29,0,0,1,.45,2.44,5.32,5.32,0,0,1-2,4.55,10,10,0,0,1-6,1.53,15.42,15.42,0,0,1-3-.25,7.79,7.79,0,0,1-2.32-.85V40.59a8.77,8.77,0,0,0,2.38,1.07,9,9,0,0,0,2.58.44q3,0,3-2.16A2.17,2.17,0,0,0,37,38.77a3.88,3.88,0,0,0-1-1,21.7,21.7,0,0,0-2-1.27,11.41,11.41,0,0,1-3.08-2.31A3.76,3.76,0,0,1,30,31.75a3.65,3.65,0,0,1,.62-2.06,6.93,6.93,0,0,1,1.85-1.79,9.33,9.33,0,0,0,1.9-1.67,2.42,2.42,0,0,0,.54-1.51,2.07,2.07,0,0,0-1.12-1.77,5.26,5.26,0,0,0-2.87-.71,4.93,4.93,0,0,0-3.18.92,3.16,3.16,0,0,0-1.14,2.61V45.6H21.24v-20A6.6,6.6,0,0,1,23.82,20a11.35,11.35,0,0,1,7.11-2,13.24,13.24,0,0,1,6.87,1.56A4.71,4.71,0,0,1,40.38,23.78Z"/>
  </g>
</svg>
