<svg xmlns="http://www.w3.org/2000/svg" xmlns:xlink="http://www.w3.org/1999/xlink" viewBox="0 0 64 64">
  <defs>
    <symbol id="button" data-name="button" viewBox="0 0 60 60">
      <circle cx="30" cy="30" r="30" fill="#a9a9dc"/>
    </symbol>
  </defs>
  <title>umlaut</title>
  <g id="umlaut">
    <use width="60" height="60" transform="translate(2 2)" xlink:href="#button"/>
    <path d="M26,32a2.29,2.29,0,0,1,.66-1.76,2.51,2.51,0,0,1,1.78-.62,2.48,2.48,0,0,1,1.82.65A2.31,2.31,0,0,1,30.89,32a2.24,2.24,0,0,1-.67,1.7,2.88,2.88,0,0,1-3.59,0A2.24,2.24,0,0,1,26,32Zm7.08,0a2.17,2.17,0,0,1,.71-1.8,2.73,2.73,0,0,1,1.77-.57,2.56,2.56,0,0,1,1.82.63A2.27,2.27,0,0,1,38,32a2.21,2.21,0,0,1-.69,1.71,2.56,2.56,0,0,1-1.81.63,2.73,2.73,0,0,1-1.77-.57A2.13,2.13,0,0,1,33.05,32Z"/>
  </g>
</svg>
